<mxfile host="app.diagrams.net" agent="Mozilla/5.0 (Windows NT 10.0; Win64; x64) AppleWebKit/537.36 (KHTML, like Gecko) Chrome/135.0.0.0 Safari/537.36 Edg/135.0.0.0" version="26.2.8">
  <diagram name="Page-1" id="FLRJEERH1tKi0cHCewut">
    <mxGraphModel dx="940" dy="666" grid="1" gridSize="10" guides="1" tooltips="1" connect="1" arrows="1" fold="1" page="1" pageScale="1" pageWidth="827" pageHeight="1169" math="0" shadow="0">
      <root>
        <mxCell id="0" />
        <mxCell id="1" parent="0" />
        <mxCell id="5WUl91D30P4-O-UeJGRd-17" style="edgeStyle=orthogonalEdgeStyle;rounded=0;orthogonalLoop=1;jettySize=auto;html=1;exitX=0.5;exitY=1;exitDx=0;exitDy=0;" edge="1" parent="1" source="5WUl91D30P4-O-UeJGRd-1" target="5WUl91D30P4-O-UeJGRd-5">
          <mxGeometry relative="1" as="geometry" />
        </mxCell>
        <mxCell id="5WUl91D30P4-O-UeJGRd-1" value="Gmail API" style="whiteSpace=wrap;html=1;aspect=fixed;fillColor=#008a00;fontColor=#ffffff;strokeColor=#005700;" vertex="1" parent="1">
          <mxGeometry x="80" y="40" width="80" height="80" as="geometry" />
        </mxCell>
        <mxCell id="5WUl91D30P4-O-UeJGRd-20" style="edgeStyle=orthogonalEdgeStyle;rounded=0;orthogonalLoop=1;jettySize=auto;html=1;exitX=1;exitY=0.5;exitDx=0;exitDy=0;entryX=0;entryY=0.5;entryDx=0;entryDy=0;" edge="1" parent="1" source="5WUl91D30P4-O-UeJGRd-2" target="5WUl91D30P4-O-UeJGRd-3">
          <mxGeometry relative="1" as="geometry">
            <Array as="points">
              <mxPoint x="520" y="70" />
              <mxPoint x="520" y="70" />
            </Array>
          </mxGeometry>
        </mxCell>
        <mxCell id="5WUl91D30P4-O-UeJGRd-2" value="Email Parser" style="rounded=0;whiteSpace=wrap;html=1;" vertex="1" parent="1">
          <mxGeometry x="330" y="40" width="120" height="60" as="geometry" />
        </mxCell>
        <mxCell id="5WUl91D30P4-O-UeJGRd-3" value="SQLite DB" style="ellipse;whiteSpace=wrap;html=1;fillColor=#1ba1e2;fontColor=#ffffff;strokeColor=#006EAF;" vertex="1" parent="1">
          <mxGeometry x="590" y="30" width="120" height="80" as="geometry" />
        </mxCell>
        <mxCell id="5WUl91D30P4-O-UeJGRd-26" style="edgeStyle=orthogonalEdgeStyle;rounded=0;orthogonalLoop=1;jettySize=auto;html=1;exitX=0.5;exitY=1;exitDx=0;exitDy=0;entryX=0.5;entryY=0;entryDx=0;entryDy=0;" edge="1" parent="1" source="5WUl91D30P4-O-UeJGRd-5" target="5WUl91D30P4-O-UeJGRd-9">
          <mxGeometry relative="1" as="geometry" />
        </mxCell>
        <mxCell id="5WUl91D30P4-O-UeJGRd-5" value="Email Analyzer" style="rounded=0;whiteSpace=wrap;html=1;" vertex="1" parent="1">
          <mxGeometry x="60" y="230" width="120" height="60" as="geometry" />
        </mxCell>
        <mxCell id="5WUl91D30P4-O-UeJGRd-8" value="Web Search Assistant" style="rounded=0;whiteSpace=wrap;html=1;fillColor=#1ba1e2;fontColor=#ffffff;strokeColor=#006EAF;" vertex="1" parent="1">
          <mxGeometry x="470" y="230" width="200" height="60" as="geometry" />
        </mxCell>
        <mxCell id="5WUl91D30P4-O-UeJGRd-28" style="edgeStyle=orthogonalEdgeStyle;rounded=0;orthogonalLoop=1;jettySize=auto;html=1;exitX=0.5;exitY=1;exitDx=0;exitDy=0;entryX=0.5;entryY=0;entryDx=0;entryDy=0;" edge="1" parent="1" source="5WUl91D30P4-O-UeJGRd-9" target="5WUl91D30P4-O-UeJGRd-12">
          <mxGeometry relative="1" as="geometry" />
        </mxCell>
        <mxCell id="5WUl91D30P4-O-UeJGRd-34" style="edgeStyle=orthogonalEdgeStyle;rounded=0;orthogonalLoop=1;jettySize=auto;html=1;exitX=1;exitY=0.5;exitDx=0;exitDy=0;entryX=0;entryY=0.5;entryDx=0;entryDy=0;" edge="1" parent="1" source="5WUl91D30P4-O-UeJGRd-9" target="5WUl91D30P4-O-UeJGRd-10">
          <mxGeometry relative="1" as="geometry" />
        </mxCell>
        <mxCell id="5WUl91D30P4-O-UeJGRd-9" value="Email Drafter" style="rounded=0;whiteSpace=wrap;html=1;" vertex="1" parent="1">
          <mxGeometry x="60" y="400" width="120" height="60" as="geometry" />
        </mxCell>
        <mxCell id="5WUl91D30P4-O-UeJGRd-32" style="edgeStyle=orthogonalEdgeStyle;rounded=0;orthogonalLoop=1;jettySize=auto;html=1;exitX=0.5;exitY=1;exitDx=0;exitDy=0;entryX=0.5;entryY=0;entryDx=0;entryDy=0;" edge="1" parent="1" source="5WUl91D30P4-O-UeJGRd-10" target="5WUl91D30P4-O-UeJGRd-13">
          <mxGeometry relative="1" as="geometry" />
        </mxCell>
        <mxCell id="5WUl91D30P4-O-UeJGRd-35" style="edgeStyle=orthogonalEdgeStyle;rounded=0;orthogonalLoop=1;jettySize=auto;html=1;exitX=1;exitY=0.5;exitDx=0;exitDy=0;entryX=0;entryY=0.5;entryDx=0;entryDy=0;" edge="1" parent="1" source="5WUl91D30P4-O-UeJGRd-10" target="5WUl91D30P4-O-UeJGRd-11">
          <mxGeometry relative="1" as="geometry" />
        </mxCell>
        <mxCell id="5WUl91D30P4-O-UeJGRd-10" value="Calendar Scheduler" style="rounded=0;whiteSpace=wrap;html=1;" vertex="1" parent="1">
          <mxGeometry x="310" y="400" width="120" height="60" as="geometry" />
        </mxCell>
        <mxCell id="5WUl91D30P4-O-UeJGRd-11" value="Google Calendar" style="ellipse;whiteSpace=wrap;html=1;fillColor=#fa6800;fontColor=#000000;strokeColor=#C73500;" vertex="1" parent="1">
          <mxGeometry x="590" y="380" width="120" height="80" as="geometry" />
        </mxCell>
        <mxCell id="5WUl91D30P4-O-UeJGRd-30" style="edgeStyle=orthogonalEdgeStyle;rounded=0;orthogonalLoop=1;jettySize=auto;html=1;exitX=1;exitY=0.5;exitDx=0;exitDy=0;entryX=0;entryY=0.5;entryDx=0;entryDy=0;" edge="1" parent="1" source="5WUl91D30P4-O-UeJGRd-12" target="5WUl91D30P4-O-UeJGRd-13">
          <mxGeometry relative="1" as="geometry" />
        </mxCell>
        <mxCell id="5WUl91D30P4-O-UeJGRd-12" value="SlackNotifier" style="rounded=0;whiteSpace=wrap;html=1;" vertex="1" parent="1">
          <mxGeometry x="60" y="555" width="120" height="60" as="geometry" />
        </mxCell>
        <mxCell id="5WUl91D30P4-O-UeJGRd-13" value="Slack" style="ellipse;whiteSpace=wrap;html=1;fillColor=#fa6800;fontColor=#000000;strokeColor=#C73500;" vertex="1" parent="1">
          <mxGeometry x="320" y="545" width="120" height="80" as="geometry" />
        </mxCell>
        <mxCell id="5WUl91D30P4-O-UeJGRd-14" value="Gmail Reply" style="rounded=0;whiteSpace=wrap;html=1;fillColor=#fa6800;fontColor=#000000;strokeColor=#C73500;" vertex="1" parent="1">
          <mxGeometry x="480" y="555" width="120" height="60" as="geometry" />
        </mxCell>
        <mxCell id="5WUl91D30P4-O-UeJGRd-18" style="edgeStyle=orthogonalEdgeStyle;rounded=0;orthogonalLoop=1;jettySize=auto;html=1;exitX=1;exitY=0.5;exitDx=0;exitDy=0;entryX=0.022;entryY=0.622;entryDx=0;entryDy=0;entryPerimeter=0;" edge="1" parent="1" source="5WUl91D30P4-O-UeJGRd-1" target="5WUl91D30P4-O-UeJGRd-2">
          <mxGeometry relative="1" as="geometry" />
        </mxCell>
        <mxCell id="5WUl91D30P4-O-UeJGRd-25" value="" style="edgeStyle=none;orthogonalLoop=1;jettySize=auto;html=1;rounded=0;entryX=0.25;entryY=1;entryDx=0;entryDy=0;" edge="1" parent="1" target="5WUl91D30P4-O-UeJGRd-8">
          <mxGeometry width="80" relative="1" as="geometry">
            <mxPoint x="410" y="340" as="sourcePoint" />
            <mxPoint x="490" y="340" as="targetPoint" />
            <Array as="points" />
          </mxGeometry>
        </mxCell>
        <mxCell id="5WUl91D30P4-O-UeJGRd-27" value="" style="edgeStyle=none;orthogonalLoop=1;jettySize=auto;html=1;rounded=0;entryX=0.5;entryY=0;entryDx=0;entryDy=0;" edge="1" parent="1" target="5WUl91D30P4-O-UeJGRd-10">
          <mxGeometry width="80" relative="1" as="geometry">
            <mxPoint x="410" y="340" as="sourcePoint" />
            <mxPoint x="490" y="340" as="targetPoint" />
            <Array as="points" />
          </mxGeometry>
        </mxCell>
        <mxCell id="5WUl91D30P4-O-UeJGRd-38" value="" style="shape=flexArrow;endArrow=classic;startArrow=classic;html=1;rounded=0;exitX=1;exitY=0.5;exitDx=0;exitDy=0;entryX=0;entryY=0.5;entryDx=0;entryDy=0;" edge="1" parent="1" source="5WUl91D30P4-O-UeJGRd-5" target="5WUl91D30P4-O-UeJGRd-8">
          <mxGeometry width="100" height="100" relative="1" as="geometry">
            <mxPoint x="360" y="390" as="sourcePoint" />
            <mxPoint x="460" y="290" as="targetPoint" />
          </mxGeometry>
        </mxCell>
        <mxCell id="5WUl91D30P4-O-UeJGRd-39" value="" style="endArrow=classic;html=1;rounded=0;" edge="1" parent="1">
          <mxGeometry width="50" height="50" relative="1" as="geometry">
            <mxPoint x="520" y="70" as="sourcePoint" />
            <mxPoint x="320" y="260" as="targetPoint" />
          </mxGeometry>
        </mxCell>
      </root>
    </mxGraphModel>
  </diagram>
</mxfile>
